<svg width="14" height="16" viewBox="0 0 14 16" fill="none" xmlns="http://www.w3.org/2000/svg">
<path d="M9.2239 3.47185C9.3263 3.378 9.3263 3.11813 9.4031 3.09286C9.77613 3.1073 10.5039 2.94849 10.5807 3.46824C10.61 3.68119 10.61 4.33088 10.5807 4.54022C10.4966 5.12133 9.74322 4.82897 9.34459 4.88311C9.35921 4.71708 9.23487 4.50052 9.06299 4.46082C8.88013 4.42111 8.09018 4.43555 7.92561 4.51135C7.43189 4.73874 7.51235 5.31985 7.51966 5.76741C7.53795 6.75638 7.60378 7.75979 7.63303 8.75237C7.66595 9.8821 7.60743 11.1346 7.70252 12.2462C7.72446 12.5133 7.81223 12.7335 8.01338 12.9104C8.43029 13.2785 8.8143 13.145 9.28241 12.9717C10.215 12.6325 11.0488 12.0261 11.6779 11.2717C11.7144 11.1851 11.3999 11.214 11.367 11.2176C11.1878 11.232 10.7124 11.4558 10.8587 11.1129L12.6616 8.71988C12.7092 8.67296 12.7494 8.60438 12.8226 8.59356C12.8957 8.58273 12.9067 8.77402 12.914 8.82817C13.0018 9.65832 13.0895 10.5895 13.1334 11.4197C13.1407 11.5821 13.1298 11.7445 13.1334 11.907C13.0164 12.0189 12.5958 11.4161 12.4056 11.4738C12.0399 13.0114 10.6429 14.1953 9.18001 14.7115C8.60584 14.9172 8.15966 14.928 7.66595 15.3395C7.42092 15.5452 7.2088 15.8592 6.92354 16C6.5688 15.7329 6.27622 15.3323 5.88856 15.1121C5.50091 14.8919 5.0145 14.8233 4.59393 14.6645C3.15301 14.1195 1.85105 12.9898 1.46705 11.4702C1.40488 11.4161 1.05745 11.7157 0.99162 11.7734C0.911162 11.842 0.925793 11.9828 0.753906 11.8673L0.998936 8.65131L1.02819 8.60799L1.13425 8.59717L3.05792 11.1815C3.12009 11.4125 2.69952 11.2356 2.57517 11.2212C2.45083 11.2067 2.32283 11.2212 2.19849 11.2176C2.18386 11.2789 2.22408 11.2898 2.25334 11.3259C2.7946 12.0225 3.76375 12.6685 4.59393 12.9717C4.92308 13.0908 5.19736 13.2063 5.54479 13.0981C5.89222 12.9898 6.13725 12.6613 6.17017 12.3148C6.33108 10.7303 6.15554 9.01224 6.31645 7.42412C6.22502 6.66254 6.4664 5.72049 6.34206 4.98418C6.29817 4.73152 6.00559 4.48247 5.74959 4.4536C5.58868 4.43555 4.9121 4.43194 4.78044 4.46804C4.5537 4.53661 4.53176 4.88312 4.50616 4.88672C4.12581 4.83258 3.37975 5.11051 3.28832 4.54022C3.25906 4.34532 3.26272 3.56569 3.32123 3.38883C3.46386 2.93766 4.1441 3.12535 4.50616 3.08204C4.53541 3.08564 4.51713 3.47907 4.8097 3.54404C4.97062 3.58013 5.63988 3.57291 5.82274 3.55125C6.11531 3.51877 6.38594 3.24085 6.42251 2.95571C6.47737 2.50453 6.11531 2.49371 5.87759 2.20135C5.31439 1.50474 5.57405 0.403876 6.43348 0.0898596C7.72081 -0.37936 8.83259 1.08966 8.02801 2.16525C7.87441 2.37099 7.49772 2.52258 7.45383 2.74997C7.38435 3.08565 7.6696 3.49711 8.01338 3.54765C8.21086 3.57652 8.79235 3.57291 8.99716 3.54765C9.06298 3.54043 9.17635 3.50794 9.2239 3.46463V3.47185ZM6.81749 0.649314C5.93611 0.79008 6.07874 2.20496 7.09178 2.03531C7.97315 1.88733 7.75372 0.50133 6.81749 0.649314Z" fill="#093074"/>
<path d="M6.81719 0.64927C7.75342 0.501285 7.97285 1.88729 7.09148 2.03527C6.07844 2.20491 5.93581 0.790036 6.81719 0.64927Z" fill="#093074"/>
</svg>
