<svg width="33" height="33" viewBox="0 0 33 33" fill="none" xmlns="http://www.w3.org/2000/svg">
<g id="icon-image">
<g id="Shape">
<path fill-rule="evenodd" clip-rule="evenodd" d="M8.50008 11.8332C8.50008 9.99222 9.99247 8.49984 11.8334 8.49984C13.6744 8.49984 15.1667 9.99222 15.1667 11.8332C15.1667 13.6741 13.6744 15.1665 11.8334 15.1665C9.99247 15.1665 8.50008 13.6741 8.50008 11.8332ZM11.8334 11.1665C11.4652 11.1665 11.1667 11.465 11.1667 11.8332C11.1667 12.2014 11.4652 12.4998 11.8334 12.4998C12.2016 12.4998 12.5001 12.2014 12.5001 11.8332C12.5001 11.465 12.2016 11.1665 11.8334 11.1665Z" fill="white"/>
<path fill-rule="evenodd" clip-rule="evenodd" d="M3.16675 7.1665C3.16675 4.95736 4.95761 3.1665 7.16675 3.1665H25.8334C28.0426 3.1665 29.8334 4.95736 29.8334 7.1665V25.8332C29.8334 28.0423 28.0426 29.8332 25.8334 29.8332H7.16675C4.95761 29.8332 3.16675 28.0423 3.16675 25.8332V7.1665ZM7.16675 5.83317C6.43037 5.83317 5.83341 6.43012 5.83341 7.1665V25.8332C5.83341 26.4049 6.19332 26.8927 6.69894 27.0821L20.8907 12.8904C21.4114 12.3697 22.2556 12.3697 22.7763 12.8904L27.1667 17.2808V7.1665C27.1667 6.43012 26.5698 5.83317 25.8334 5.83317H7.16675ZM27.1667 21.052L21.8335 15.7188L10.3858 27.1665H25.8334C26.5698 27.1665 27.1667 26.5695 27.1667 25.8332V21.052Z" fill="white"/>
</g>
</g>
</svg>
