<svg width="17" height="18" viewBox="0 0 17 18" fill="none" xmlns="http://www.w3.org/2000/svg">
<path d="M15.0253 2.75033C14.5853 2.44691 14.8591 0.122275 12.4388 1.36045C10.8399 2.17774 11.4267 3.63614 10.9328 4.74707C10.8106 5.02113 8.77167 6.98362 8.52719 6.93957C7.93557 6.21526 6.61541 5.65245 6.20469 4.84495C5.5984 3.65082 6.08734 1.35066 4.07288 1.08638C2.41046 0.871049 2.72338 1.84495 2.12198 2.535C1.5988 3.14185 0.469335 2.82864 0.528009 4.37513C0.61113 6.47954 3.06565 6.67529 4.69873 6.33272L6.899 8.5399C6.899 8.75034 4.12177 11.168 3.80396 11.3344C2.96786 11.7797 0.20041 11.2463 0.0586155 13.4534C-0.0342846 14.8678 1.21742 14.8482 1.70637 15.3327C2.48379 16.1109 2.3909 17.7406 4.38581 16.5415C6.1069 15.504 5.26591 13.8009 5.80375 12.5823C5.97488 12.1957 8.30716 10.0913 8.69832 10.1598C9.05036 10.7422 11.0159 11.9901 11.1822 12.3327C11.7347 13.473 10.8301 15.4649 12.7908 16.5954C14.9715 17.8531 14.7759 15.8221 15.2698 15.3278C15.7147 14.8825 17.0202 15.3572 16.942 13.4436C16.8393 10.9477 14.1599 11.8678 13.1771 11.3344C12.8495 11.1582 10.3118 8.7797 10.3118 8.54479C10.8204 8.01624 11.764 6.63125 12.3556 6.39634C13.3775 5.99504 16.1988 7.25278 16.6388 4.56599C16.9273 2.81395 15.5338 3.1027 15.0204 2.74544L15.0253 2.75033Z" fill="#8E122A" stroke="white" stroke-width="0.0938502" stroke-miterlimit="10"/>
</svg>
